<svg width="512" height="512" viewBox="0 0 512 512" version="1.1" xmlns:xlink="http://www.w3.org/1999/xlink" xmlns="http://www.w3.org/2000/svg">
      <defs>
            <linearGradient id="gradient-base">
                  <stop style="stop-color:#00dbe6;stop-opacity:1;" offset="0" />
                  <stop style="stop-color:#1429c1;stop-opacity:1;" offset="1" />
            </linearGradient>
            <linearGradient xlink:href="#gradient-base" id="gradient" x1="202.98418" y1="299.2059" x2="241.18549" y2="133.13347" gradientUnits="userSpaceOnUse" gradientTransform="matrix(3.66,0,0,3.66,-320,-480)" />
      </defs>
      <path style="fill:url(#gradient)" d="M 89.891802,9.249102 H 422.1082 c 44.67605,0 80.6427,35.966643 80.6427,80.642698 v 332.21639 c 0,44.67606 -35.96665,80.64271 -80.6427,80.64271 H 89.891802 c -44.676055,0 -80.6426984,-35.96665 -80.6426984,-80.64271 V 89.8918 c 0,-44.676055 35.9666434,-80.642698 80.6426984,-80.642698 z" />
      <path style="fill:#000000;fill-opacity:0.0257009" d="M 221.22049,69.208615 49.749048,266.99427 221.22049,466.02602 256.00037,425.65465 290.78214,466.02602 462.25169,266.99427 290.78214,69.208615 256.00037,109.32661 Z m 0,30.638747 20.97987,25.397098 L 119.31069,266.99427 242.26844,409.71601 221.22049,435.38538 83.139093,266.99427 Z m 69.56165,0 L 428.86354,266.99427 290.78214,435.38538 269.7323,409.71601 392.69004,266.99427 269.80038,125.24446 Z M 256.00037,141.94894 359.3,266.99427 256.00037,392.96993 152.70074,266.99427 Z m -46.70409,83.95162 36.17728,41.85385 -35.97684,41.58156 h 20.35208 l 25.86415,-29.88993 25.79985,29.88993 h 21.18976 l -36.4628,-42.05996 35.84258,-41.37545 h -20.35776 l -25.65047,29.6063 -25.3933,-29.6063 z" />
      <path style="color:#000000;fill:#fdfdfd;fill-opacity:0.0607476;" d="M 221.22049,32.621002 208.86326,46.876724 28.131933,255.34232 221.22238,479.46672 256.00226,439.09725 290.78214,479.46672 483.87069,255.34232 290.78214,32.621002 256.00037,72.738977 Z m 34.77988,123.392648 34.62482,41.91247 h -16.37167 l -18.1189,20.9118 -17.93358,-20.9118 h -16.82549 z m 57.69606,69.84151 24.41947,29.55902 -24.51969,29.90128 -25.71286,-29.66113 z m -115.69846,0.37062 25.85091,29.90507 -25.34981,29.30185 -24.61424,-30.01852 z m 57.69985,66.61747 18.325,21.23137 h 15.9916 l -34.01405,41.48323 -34.01406,-41.48323 h 15.33924 z" />
      <path style="fill:#000000;fill-opacity:0.135514" d="M 221.22049,63.399675 49.749048,261.18532 221.22049,460.21707 256.00037,419.8457 290.78214,460.21707 462.25169,261.18532 290.78214,63.399675 256.00037,103.51766 Z m 0,30.638741 20.97987,25.397094 L 119.31069,261.18532 242.26844,403.90706 221.22049,429.57643 83.139093,261.18532 Z m 69.56165,0 L 428.86354,261.18532 290.78214,429.57643 269.7323,403.90706 392.69004,261.18532 269.80038,119.43551 Z M 256.00037,136.13999 359.3,261.18532 256.00037,387.16098 152.70074,261.18532 Z m -46.70409,83.95162 36.17728,41.85385 -35.97684,41.58156 h 20.35208 l 25.86415,-29.88993 25.79985,29.88993 h 21.18976 l -36.4628,-42.05996 35.84258,-41.37545 h -20.35776 l -25.65047,29.6063 -25.3933,-29.6063 z" />
      <path style="fill:#fdfdfd" d="M 221.22049,57.590735 49.749048,255.37637 221.22049,454.40812 256.00037,414.03675 290.78214,454.40812 462.25169,255.37637 290.78214,57.590735 256.00037,97.70871 Z m 0,30.638742 20.97987,25.397083 L 119.31069,255.37637 242.26844,398.09811 221.22049,423.76748 83.139093,255.37637 Z m 69.56165,0 L 428.86354,255.37637 290.78214,423.76748 269.7323,398.09811 392.69004,255.37637 269.80038,113.62656 Z M 256.00037,130.33104 359.3,255.37637 256.00037,381.35203 152.70074,255.37637 Z m -46.70409,83.95162 36.17728,41.85385 -35.97684,41.58156 h 20.35208 l 25.86415,-29.88993 25.79985,29.88993 h 21.18976 l -36.4628,-42.05995 35.84258,-41.37546 h -20.35776 l -25.65047,29.6063 -25.3933,-29.6063 z" />
</svg>