<svg width="512" height="512" viewBox="0 0 512 512" version="1.1"
      xmlns:xlink="http://www.w3.org/1999/xlink"
      xmlns="http://www.w3.org/2000/svg"
      xmlns:svg="http://www.w3.org/2000/svg">
      <style>
            @keyframes opacityIn {
                  from { opacity: 0; }
                  50% { opacity: .1; }
                  to { opactity: 1; }
            }
            @keyframes zoomOut {
                  from { transform: scale(400%); }
                  to { transform: scale(100%); }
            }
            @keyframes bounce {
                  from { transform: scale(100%); }
                  33% { transform: scale(90%); }
                  to { transform: scale(100%); }
            }
            .anim {
                  animation-name: zoomOut, opacityIn;
                  animation-delay: .5s;
                  transform-origin: center;
                  animation-duration: .3s;
            }
            .opin {
                  animation-name: opacityIn;
                  animation-delay: .2s;
                  animation-duration: .3s;
            }
            .anim {
                  animation-delay: .3s;
                  animation-name: zoomOut, opacityIn;
                  transform-origin: center;
                  animation-duration: .3s;
            }
            .bounce {
                  animation-delay: .5s;
                  animation-name:  bounce;
                  transform-origin: center;
                  animation-duration: .3s;
            }
      </style>
      <defs>
            <linearGradient id="gradient-base">
                  <stop style="stop-color:#00dbe6;stop-opacity:1;" offset="0"/>
                  <stop style="stop-color:#1429c1;stop-opacity:1;" offset="1"/>
            </linearGradient>
            <linearGradient xlink:href="#gradient-base" id="gradient" x1="202.98418" y1="299.2059" x2="241.18549" y2="133.13347" gradientUnits="userSpaceOnUse" gradientTransform="matrix(2.2440986,0,0,2.2440986,-97.169637,-195.27231)" />
      </defs>
      <path class="bounce" style="fill:url(#gradient);stroke-width:1" d="m 154.15213,104.70673 h 203.69573 c 27.39275,0 49.4454,22.05264 49.4454,49.4454 v 203.69572 c 0,27.39276 -22.05265,49.44541 -49.4454,49.44541 H 154.15213 c -27.39276,0 -49.4454,-22.05265 -49.4454,-49.44541 V 154.15213 c 0,-27.39276 22.05264,-49.4454 49.4454,-49.4454 z" />
      <path class="opin" style="fill:#000000;fill-opacity:0.025;stroke-width:1" d="M 234.67522,141.4704 129.53893,262.74104 234.67522,384.7757 256.00022,360.02234 277.32637,384.7757 382.46151,262.74104 277.32637,141.4704 256.00022,166.06842 Z m 0,18.7859 12.86364,15.57201 -75.34878,86.91273 75.39052,87.50866 -12.90538,15.73895 -84.66346,-103.24761 z m 42.65115,0 84.66347,102.48474 -84.66347,103.24761 -12.90653,-15.73895 75.39052,-87.50866 -75.34878,-86.91273 z m -21.32615,25.81423 63.33731,76.67051 -63.33731,77.24093 -63.33731,-77.24093 z m -28.63623,51.47424 22.1818,25.66234 -22.05889,25.49539 h 12.4787 l 15.8584,-18.32677 15.81895,18.32677 h 12.99233 L 262.27842,262.91378 284.255,237.54477 h -12.48219 l -15.72737,18.15286 -15.56969,-18.15286 z" />
      <path class="opin" style="color:#000000;fill:#fdfdfd;fill-opacity:0.0607476;stroke-width:1" d="m 234.67522,119.03701 -7.57673,8.74078 -110.81391,127.81895 118.39181,137.42002 21.32499,-24.75221 21.32499,24.75221 118.39065,-137.42002 -118.39065,-136.55973 -21.32615,24.59801 z m 21.325,75.65718 21.22992,25.69829 h -10.03816 l -11.10945,12.8219 -10.99582,-12.8219 h -10.31642 z m 35.37586,42.82275 14.9726,18.12387 -15.03404,18.33371 -15.76564,-18.18648 z m -70.93955,0.22724 15.85027,18.33604 -15.54303,17.96619 -15.09201,-18.4056 z m 35.37819,40.84594 11.23581,13.01785 h 9.80512 l -20.85543,25.43509 -20.85544,-25.43509 h 9.40513 z" />
      <path class="opin" style="fill:#000000;fill-opacity:0.135514;stroke-width:1" d="M 234.67522,137.90869 129.53893,259.17933 234.67522,381.214 256.00022,356.46063 277.32637,381.214 382.46151,259.17933 277.32637,137.90869 256.00022,162.50671 Z m 0,18.7859 12.86364,15.57202 -75.34878,86.91272 75.39052,87.50865 -12.90538,15.73896 -84.66346,-103.24761 z m 42.65115,0 84.66347,102.48474 -84.66347,103.24761 -12.90653,-15.73896 75.39052,-87.50865 -75.34878,-86.91272 z m -21.32615,25.81423 63.33731,76.67051 -63.33731,77.24093 -63.33731,-77.24093 z m -28.63623,51.47424 22.1818,25.66234 -22.05889,25.4954 h 12.4787 l 15.8584,-18.32677 15.81895,18.32677 h 12.99233 L 262.27842,259.35207 284.255,233.98306 h -12.48219 l -15.72737,18.15286 -15.56969,-18.15286 z" />
      <path class="anim" style="fill:#fdfdfd;stroke-width:1" d="m 234.67522,134.347 -105.13629,121.27062 105.13629,122.03467 21.325,-24.75337 21.32615,24.75337 L 382.46151,255.61762 277.32637,134.347 256.00022,158.945 Z m 0,18.78589 12.86364,15.57201 -75.34878,86.91272 75.39052,87.50865 -12.90538,15.73896 -84.66346,-103.24761 z m 42.65115,0 84.66347,102.48473 -84.66347,103.24761 -12.90653,-15.73896 75.39052,-87.50865 -75.34878,-86.91272 z m -21.32615,25.81422 63.33731,76.67051 -63.33731,77.24093 -63.33731,-77.24093 z m -28.63623,51.47424 22.1818,25.66235 -22.05889,25.49538 h 12.4787 l 15.8584,-18.32676 15.81895,18.32676 h 12.99233 L 262.27842,255.79037 284.255,230.42135 h -12.48219 l -15.72737,18.15285 -15.56969,-18.15285 z" />
</svg>
